<svg xmlns="http://www.w3.org/2000/svg" width="149" height="40.287" viewBox="0 0 149 40.287">
  <g id="logo_bosch" transform="translate(-727.971 -1154.006)">
    <path id="Path_2" data-name="Path 2" d="M748.145,1154.007a20.143,20.143,0,1,1-20.153,19.024A19.99,19.99,0,0,1,748.145,1154.007Zm16.79,20.142a16.844,16.844,0,1,0-17.643,16.8A16.756,16.756,0,0,0,764.936,1174.149Z" transform="translate(0)"/>
    <path id="Path_3" data-name="Path 3" d="M949.692,1219.035v-23.121a5.2,5.2,0,0,1,.64-.083c3.741.009,7.484-.045,11.223.056a6.216,6.216,0,0,1,6.312,6.787c-.053,1.719-.464,2.434-2.562,4.419a5.938,5.938,0,0,1,3.5,4.141,6.519,6.519,0,0,1-5.264,7.634,8.856,8.856,0,0,1-1.768.216c-3.808.02-7.615.012-11.423.01C950.155,1219.095,949.96,1219.06,949.692,1219.035Zm5.74-4.76c1.8,0,3.421.051,5.034-.03a2.685,2.685,0,0,0,1.5-.637,2.088,2.088,0,0,0,.618-2.266,1.98,1.98,0,0,0-1.716-1.589c-1.612-.126-3.235-.125-4.853-.116a.827.827,0,0,0-.561.581C955.406,1211.529,955.432,1212.843,955.432,1214.275Zm.032-13.594v4.329c1.6,0,3.12.058,4.63-.02a2.09,2.09,0,0,0,1.806-2.135,2.042,2.042,0,0,0-1.784-2.153C958.607,1200.619,957.09,1200.682,955.464,1200.682Z" transform="translate(-177.667 -33.51)"/>
    <path id="Path_4" data-name="Path 4" d="M1394.324,1218.675v-9.066h-7v9.048h-6.15V1195.47h6.015v8.572c2.341,0,4.547.02,6.75-.039.167,0,.451-.562.457-.867.04-2.184.057-4.369.006-6.552-.021-.921.168-1.3,1.212-1.192a34.246,34.246,0,0,0,3.666-.016c.354,0,.709.035,1.109.057v23.242Z" transform="translate(-523.416 -33.148)"/>
    <path id="Path_5" data-name="Path 5" d="M1076.158,1205.785c-.222,4.792-1.84,8.792-6.49,10.933a10.457,10.457,0,0,1-14.012-5.743,14.788,14.788,0,0,1-.125-10.646,10.447,10.447,0,0,1,19.4-.536A15.169,15.169,0,0,1,1076.158,1205.785Zm-16-.188a25.409,25.409,0,0,0,1.089,3.655,4.366,4.366,0,0,0,4.134,2.753,4.463,4.463,0,0,0,4.16-2.749,7.991,7.991,0,0,0-.379-7.959,4.452,4.452,0,0,0-7.388-.313A8.814,8.814,0,0,0,1060.157,1205.6Z" transform="translate(-261.732 -31.633)"/>
    <path id="Path_6" data-name="Path 6" d="M1167.775,1213.062l3.623-3.884a11.115,11.115,0,0,0,1.524,1.064,37.4,37.4,0,0,0,4.234,1.828,3.155,3.155,0,0,0,1.908-.244,1.872,1.872,0,0,0,1.331-1.99,1.971,1.971,0,0,0-1.578-1.823c-1.175-.328-2.384-.53-3.569-.827a9.272,9.272,0,0,1-4.259-1.994c-3.985-3.7-2.61-9.658,2.712-11.711a12.118,12.118,0,0,1,12.016,2.794l-3.167,3.449c-1.622-.612-3.074-1.2-4.557-1.693a2.849,2.849,0,0,0-1.36.029c-1.285.245-1.982.958-2.015,1.974-.028.894.559,1.614,1.8,1.96,1.493.417,3.036.657,4.522,1.1,2.734.811,4.876,2.328,5.308,5.377a7.177,7.177,0,0,1-5.655,8.312A13.514,13.514,0,0,1,1167.775,1213.062Z" transform="translate(-352.419 -31.154)"/>
    <path id="Path_7" data-name="Path 7" d="M1289.477,1198.14l-4.492,2.967a18.069,18.069,0,0,0-3.02-2.165c-1.993-.88-4.618.32-5.689,2.568a7.836,7.836,0,0,0,.461,8.03,4.467,4.467,0,0,0,7.531.281c.143-.18.281-.364.475-.618l4.845,3.2a9.943,9.943,0,0,1-6.249,4.659,10.859,10.859,0,0,1-13.434-8.779c-.782-4.19-.306-8.2,2.535-11.6C1276.917,1191.325,1286.268,1192.1,1289.477,1198.14Z" transform="translate(-433.986 -31.322)"/>
    <path id="Path_8" data-name="Path 8" d="M780.9,1200.549v-7.217c4.169,1.363,7.551,5.928,7.932,10.586.62,7.574-3.9,12.112-7.949,13.663v-8.568h-10.1v8.669c-3.78-.931-7.759-5.541-8.382-10.255a13.192,13.192,0,0,1,8.307-14.342v7.464ZM768.1,1213.1v-15.43A10.715,10.715,0,0,0,768.1,1213.1Zm2.711-10.064v3.286h10.021v-3.286Zm12.718-4.816v14.219C787.137,1209.244,787.476,1202.262,783.528,1198.224Z" transform="translate(-27.486 -31.314)"/>
  </g>
</svg>
