<svg xmlns="http://www.w3.org/2000/svg" width="143.245" height="41.382" viewBox="0 0 143.245 41.382">
  <g id="logo_frandsen" transform="translate(-823 -280)">
    <path id="Path_37" data-name="Path 37" d="M966.245,321.382c-.613-.039-1.226-.112-1.839-.112q-69.515-.008-139.031,0c-.792,0-1.583.073-2.375.111V280c.7.039,1.406.111,2.11.111q69.78.009,139.561,0c.525,0,1.049-.073,1.574-.112Zm-71.918-1.549c22.357,0,44.714-.033,67.071.05,2.308.008,3.016-.586,2.989-2.95q-.186-16.169,0-32.341c.028-2.383-.731-2.961-3.007-2.958q-66.938.088-133.877,0c-2.292,0-3.039.6-3.012,2.975q.184,16.037-.005,32.076c-.034,2.609.811,3.212,3.3,3.2C849.966,319.8,872.147,319.834,894.327,319.833Z"/>
    <path id="Path_38" data-name="Path 38" d="M1065.636,309.224c0-5.6-.011-11.2,0-16.8.008-3.141.122-3.214,3.643-2.583V320.6c-2.509.974-3.685.116-4.353-2.411-1.329-5.032-2.942-9.988-4.448-14.973a5.251,5.251,0,0,0-1.442-2.563v20.16H1055.4V289.931c3.114-.92,3.452-.762,4.363,2.151,1.555,4.97,3.091,9.945,4.651,14.912.248.79.582,1.553.876,2.328Z" transform="translate(-109.102 -4.428)"/>
    <path id="Path_39" data-name="Path 39" d="M940.17,320.822c-2.7.994-3.79-.066-4.457-2.512-1.441-5.282-3.139-10.495-4.747-15.73a3.36,3.36,0,0,0-1.229-1.818c0,1.87-.014,3.741,0,5.611.038,3.888.117,7.777.132,11.665.012,3.347-.046,3.371-3.616,2.821a12.125,12.125,0,0,1-.24-1.731c-.016-8.929-.046-17.858.045-26.786a2.9,2.9,0,0,1,1.3-2.281c1.442-.493,2.591-.027,3.106,1.819,1.377,4.934,2.974,9.806,4.494,14.7.276.89.6,1.765.9,2.647l.723-.049c0-.991.01-1.982,0-2.972-.053-4.418-.142-8.836-.16-13.254-.013-3.2.239-3.358,3.744-2.62Z" transform="translate(-48.354 -4.637)"/>
    <path id="Path_40" data-name="Path 40" d="M963.127,321.15V315.06c0-7.516.055-15.032-.036-22.547-.023-1.927.513-2.595,2.53-2.618,8.911-.1,11.675,2.257,12.175,11.361a59,59,0,0,1-.449,12.388c-.871,5.494-3.591,7.4-9.2,7.5C966.654,321.173,965.156,321.15,963.127,321.15Zm4.183-27.717V317.52c3.43.225,5.617-.921,5.892-4.3a89.08,89.08,0,0,0-.2-15.725C972.715,294.48,970.518,293.329,967.31,293.433Z" transform="translate(-65.767 -4.644)"/>
    <path id="Path_41" data-name="Path 41" d="M874.186,320.856c-2.535.84-3.946.116-4.741-2.5-1.132-3.726-2.643-7.336-3.992-11l-.783.143v13.177c-3.838.822-3.976.725-3.981-2.742-.01-8.292.1-16.586-.064-24.875-.051-2.626.831-3.544,3.316-3.161a4.347,4.347,0,0,0,.793,0c3.268-.1,6.484-.094,7.9,3.726,1.514,4.075.413,9.08-2.348,11.754a3.044,3.044,0,0,0-.509,2.621c1.406,4.174,3.006,8.284,4.531,12.418C874.337,320.487,874.268,320.586,874.186,320.856Zm-9.525-17.043c2.8-.237,4.028-1.467,4.2-3.545.192-2.4.781-5.048-1.8-6.684-.909-.577-2.262-.915-2.35.772C864.547,297.391,864.661,300.441,864.661,303.813Z" transform="translate(-17.663 -4.609)"/>
    <path id="Path_42" data-name="Path 42" d="M905.557,320.909c-3.151,1.039-4.287-.026-4.629-2.708-.348-2.73-3.771-4.25-6.225-2.864a2.941,2.941,0,0,0-.966,1.723c-.342,1.267-.533,2.575-.819,4.035h-3.857c1.9-8.784,3.759-17.4,5.621-26.02a18.871,18.871,0,0,1,.854-3.594,2.462,2.462,0,0,1,1.8-1.289,2.355,2.355,0,0,1,1.868,1.223C901.387,301.216,903.455,311.041,905.557,320.909Zm-7.965-23.248-.638-.078c-.724,4.7-1.449,9.406-2.2,14.283h4.936C898.966,306.962,898.28,302.312,897.593,297.662Z" transform="translate(-31.014 -4.785)"/>
    <path id="Path_43" data-name="Path 43" d="M1027.712,321.031V290.037c3.271,0,6.414-.064,9.548.07.47.02,1.24.959,1.256,1.492.018.553-.658,1.183-1.142,1.667-.185.186-.685.027-1.03.09-1.557.283-4.37.391-4.453.92a41.931,41.931,0,0,0-.075,8.421c.012.263.971.611,1.523.688a15.459,15.459,0,0,1,2.627.112,3.005,3.005,0,0,1,1.819,1.53c.4,1.344-.511,1.75-1.813,1.822-4.408.245-4.405.289-4.405,4.679v1.061c0,4.957,0,4.994,4.944,5.157,1.354.044,2.472.337,2.029,1.869a2.8,2.8,0,0,1-2.051,1.527c-2.461.19-4.945.073-7.42.059C1028.722,321.2,1028.375,321.117,1027.712,321.031Z" transform="translate(-96.105 -4.705)"/>
    <path id="Path_44" data-name="Path 44" d="M1007.588,293.586c-2.6-1.109-4.819-1.7-6.452.795-1.343,2.048-.917,4.251,1.25,6.7,1.344,1.518,2.756,2.978,4.1,4.5a10.538,10.538,0,0,1,2.286,10.13,6.651,6.651,0,0,1-6.7,5.327c-4.653-.129-5.349-1.419-4.5-5.071a9.564,9.564,0,0,1,.958.344c1.939.933,3.954,1.5,5.557-.408a4.968,4.968,0,0,0,.253-6.179,38.429,38.429,0,0,0-4.5-5.152c-2.808-2.951-4.1-6.3-3.094-10.384a7.011,7.011,0,0,1,9.482-4.994C1008.416,290,1007.546,291.7,1007.588,293.586Z" transform="translate(-81.406 -4.087)"/>
    <path id="Path_45" data-name="Path 45" d="M843.527,306.61c-.553.059-.983.141-1.413.145-4.954.041-4.648-.711-4.654,4.73,0,3.077,0,6.154,0,9.168-3.548,1.009-3.953.762-3.965-2.529-.03-8.558.031-17.115-.053-25.672-.02-1.978.652-2.662,2.608-2.539,2.285.143,4.595-.079,6.873.114.644.054,1.213,1,1.817,1.537-.573.573-1.144,1.149-1.726,1.713-.047.046-.172,0-.259.015-1.691.221-4.74.177-4.844.71a29.01,29.01,0,0,0-.179,8.368c.044.442,2.194.965,3.36.943C843.419,303.268,844.487,303.925,843.527,306.61Z" transform="translate(-4.901 -4.648)"/>
  </g>
</svg>
