<svg xmlns="http://www.w3.org/2000/svg" width="145" height="38.803" viewBox="0 0 145 38.803">
  <g id="logo_eaton" transform="translate(-844.066 -815.986)">
    <path id="Path_9" data-name="Path 9" d="M963.2,831.506l.266,0a3.014,3.014,0,0,1,.28.534q3.192,10.828,6.356,21.665a1.238,1.238,0,0,0,1.412,1.072q8.19-.054,16.382,0c.861.005,1.169-.2,1.167-1.123q-.044-18.193,0-36.387c0-1.007-.332-1.232-1.266-1.216-2.992.051-5.986.057-8.978,0-1.008-.02-1.219.364-1.217,1.286.017,7.088-.01,14.177-.035,21.265,0,.345.258.775-.187,1.077-.107-.133-.2-.2-.23-.293-2.2-7.362-4.409-14.722-6.568-22.1a1.419,1.419,0,0,0-1.625-1.242q-8.111.072-16.224,0c-.973-.007-1.236.294-1.234,1.25q.044,18.114-.007,36.229c0,1.116.413,1.267,1.365,1.25,2.939-.052,5.882-.083,8.82.01,1.239.039,1.562-.31,1.552-1.55C963.171,845.993,963.2,838.749,963.2,831.506ZM870.117,843.99c-3.763,0-7.382-.064-11,.034-1.324.036-1.556-.447-1.521-1.618.032-1.077.057-1.715,1.475-1.669,3.568.114,7.141.028,10.713.044.778,0,1.4-.027,1.676-.988.79-2.765,1.592-5.532,2.546-8.243.443-1.261.039-1.351-1.045-1.341-4.569.045-9.138.028-13.707,0-.47,0-1.076.289-1.39-.368a1.8,1.8,0,0,1,1.748-2.724q7.248-.022,14.5-.045c.544,0,1.187.2,1.43-.6q1.566-5.16,3.155-10.316a2.578,2.578,0,0,0-.471-.13c-11.029-.009-22.058,0-33.086-.039-1,0-1.07.451-1.065,1.246.028,4.464.013,8.928.013,13.392q0,11.344,0,22.689c0,.688-.266,1.47.985,1.463,6.932-.042,13.865-.022,20.8-.016.494,0,.933,0,1.116-.6C868.007,850.818,869.04,847.482,870.117,843.99Zm62.536-27.91q-1.725,0-3.45,0c-10.025-.014-20.05-.01-30.075-.068-1.167-.007-1.529.289-1.489,1.489.092,2.778.071,5.564-.006,8.344-.03,1.079.247,1.46,1.378,1.433,2.833-.069,5.67.06,8.5-.031,1.276-.042,1.547.381,1.539,1.587-.052,8.135.005,16.271-.061,24.406-.01,1.284.367,1.567,1.576,1.546,4.093-.071,8.188-.027,12.281-.027h3.911C912.982,843.236,917.234,821.059,932.652,816.08Zm14.8,21.214c.027-4.5-3.236-8.206-7.312-8.3-4.19-.1-7.791,3.673-7.82,8.186a7.413,7.413,0,0,0,7.477,7.8A7.58,7.58,0,0,0,947.452,837.294Zm-47.32,17.392c-.9-3.091-1.787-6.084-2.622-9.094a1.133,1.133,0,0,0-1.323-.949c-3.509.033-7.019.017-10.528.011-.484,0-.95-.022-1.129.573-.94,3.129-1.883,6.256-2.848,9.46Zm-8.9-30.624-.283-.066c-1.1,3.681-2.18,7.366-3.3,11.041-.234.771.1.9.751.893,1.727-.018,3.455-.047,5.18.014.925.033,1.048-.286.806-1.093C893.321,831.261,892.286,827.66,891.237,824.062Z"/>
    <path id="Path_10" data-name="Path 10" d="M1196.578,831.629c0,7.243-.031,14.487.03,21.73.011,1.24-.313,1.589-1.552,1.55-2.937-.093-5.88-.062-8.82-.01-.952.017-1.369-.134-1.365-1.25q.064-18.114.007-36.229c0-.956.261-1.258,1.234-1.25q8.112.063,16.224,0a1.42,1.42,0,0,1,1.625,1.242c2.159,7.374,4.368,14.734,6.568,22.1.027.091.123.16.23.293.445-.3.186-.733.187-1.077.025-7.088.051-14.177.035-21.265,0-.922.209-1.306,1.217-1.286,2.992.059,5.986.053,8.978,0,.934-.016,1.269.209,1.266,1.216q-.051,18.193,0,36.387c0,.92-.305,1.128-1.167,1.123q-8.19-.051-16.382,0a1.238,1.238,0,0,1-1.412-1.072q-3.145-10.842-6.356-21.665a3.01,3.01,0,0,0-.28-.534Z" transform="translate(-233.376 -0.124)"/>
    <path id="Path_11" data-name="Path 11" d="M870.117,843.99c-1.076,3.493-2.11,6.828-3.128,10.168-.183.6-.622.6-1.116.6-6.933-.006-13.865-.026-20.8.016-1.251.008-.985-.775-.985-1.463q-.009-11.344,0-22.689c0-4.464.015-8.928-.013-13.392,0-.8.062-1.25,1.065-1.246,11.029.036,22.058.03,33.086.039a2.578,2.578,0,0,1,.471.13q-1.58,5.161-3.155,10.316c-.243.8-.886.6-1.43.6q-7.248.034-14.5.045a1.8,1.8,0,0,0-1.748,2.724c.314.658.92.366,1.39.368,4.569.023,9.139.04,13.707,0,1.084-.01,1.488.08,1.045,1.341-.954,2.711-1.756,5.478-2.546,8.243-.275.961-.9.991-1.676.988-3.571-.015-7.145.071-10.713-.044-1.418-.045-1.443.592-1.475,1.669-.035,1.171.2,1.654,1.521,1.618C862.735,843.925,866.353,843.99,870.117,843.99Z"/>
    <path id="Path_12" data-name="Path 12" d="M1049.016,816.134c-15.418,4.979-19.67,27.157-5.893,38.677h-3.911c-4.094,0-8.188-.044-12.281.027-1.209.021-1.587-.262-1.576-1.546.066-8.135.009-16.271.061-24.406.008-1.205-.263-1.628-1.539-1.587-2.831.092-5.669-.037-8.5.031-1.131.027-1.408-.355-1.378-1.433.077-2.78.1-5.565.006-8.344-.04-1.2.322-1.5,1.489-1.489,10.025.058,20.05.054,30.074.068Q1047.291,816.137,1049.016,816.134Z" transform="translate(-116.364 -0.055)"/>
    <path id="Path_13" data-name="Path 13" d="M1139.172,865.548a7.58,7.58,0,0,1-7.655,7.686,7.413,7.413,0,0,1-7.477-7.8c.029-4.513,3.63-8.282,7.82-8.186C1135.936,857.342,1139.2,861.046,1139.172,865.548Z" transform="translate(-191.72 -28.254)"/>
    <path id="Path_14" data-name="Path 14" d="M981.847,916.939H963.4c.965-3.2,1.908-6.331,2.848-9.46.178-.594.644-.573,1.129-.573,3.509.007,7.019.022,10.529-.011a1.133,1.133,0,0,1,1.323.949C980.06,910.855,980.951,913.848,981.847,916.939Z" transform="translate(-81.715 -62.253)"/>
    <path id="Path_15" data-name="Path 15" d="M985.77,841.464c1.049,3.6,2.085,7.2,3.158,10.79.241.807.119,1.125-.806,1.093-1.725-.061-3.453-.032-5.18-.014-.654.007-.985-.122-.751-.893,1.116-3.675,2.2-7.36,3.3-11.041Z" transform="translate(-94.533 -17.402)"/>
  </g>
</svg>
