<svg xmlns="http://www.w3.org/2000/svg" width="164.678" height="26.537" viewBox="0 0 164.678 26.537">
  <g id="logo_pracht" transform="translate(-879.082 -523.667)">
    <path id="Path_29" data-name="Path 29" d="M961.442,550.213c-2.843,0-5.125-.027-7.406.013-.98.017-1.363-.684-1.819-1.309-1.394-1.916-2.8-3.825-4.133-5.781a2.11,2.11,0,0,0-2.348-1.089c-1.323.285-.626,1.379-.8,2.12a2.874,2.874,0,0,0-.007.645c0,5.7,0,5.668-5.714,5.428-1.085-.046-1.508-.31-1.5-1.467q.065-11.211,0-22.423c-.009-1.226.5-1.408,1.539-1.4,3.881.047,7.764-.064,11.642.051,6.2.185,10.2,5.473,8.6,11.159a6.256,6.256,0,0,1-3.238,4.1c-1.775.864-1.345,1.535-.372,2.708C957.7,545.176,959.372,547.5,961.442,550.213Zm-13.282-13.588c.359,0,.718,0,1.076,0,2.461-.013,3.4-.784,3.415-2.8.015-2.126-1.026-3.066-3.445-3.1a12.746,12.746,0,0,1-1.935-.018c-2.015-.342-2.553.482-2.462,2.446C944.97,536.62,944.852,536.625,948.159,536.625Z" transform="translate(-33.345 -0.73)" fill="#fff"/>
    <path id="Path_30" data-name="Path 30" d="M1146.019,537.671c0,3.594-.048,7.188.027,10.78.027,1.284-.319,1.732-1.674,1.762-5.528.122-5.527.169-5.527-5.391,0-4.04,0-4.04-4.027-4.039-4.768,0-4.768,0-4.768,4.8,0,4.6,0,4.48-4.59,4.645-2.13.076-2.79-.423-2.734-2.674.172-6.9.1-13.8.03-20.7-.015-1.454.3-1.964,1.87-1.953,5.423.036,5.424-.029,5.424,5.286,0,4.253,0,4.253,4.253,4.255,4.542,0,4.542,0,4.542-4.591,0-4.921,0-4.808,4.9-4.962,2.006-.063,2.392.6,2.314,2.43C1145.914,530.766,1146.019,534.221,1146.019,537.671Z" transform="translate(-138.574 -0.695)" fill="#fff"/>
    <path id="Path_31" data-name="Path 31" d="M1020.775,549.967a11.665,11.665,0,0,0-1.72.013,2.246,2.246,0,0,1-2.907-2.008c-.347-1.744-1.4-2.33-3.2-2.185a46.382,46.382,0,0,1-6.88,0c-1.5-.1-2.358.4-2.628,1.794-.387,2.006-1.524,2.728-3.5,2.4-1.586-.266-3.751.759-4.612-.5-.487-.714.938-2.78,1.575-4.2,2.807-6.266,5.676-12.5,8.433-18.79a2.785,2.785,0,0,1,2.649-1.841c4.091-.581,6.209.851,7.671,4.853,2.276,6.233,5.324,12.183,8.031,18.259.981,2.2.962,2.21-1.4,2.214Zm-11.042-18.031-3.081,7.76h6.164Z" transform="translate(-66.057 -0.483)" fill="#fff"/>
    <path id="Path_32" data-name="Path 32" d="M879.11,537.46c0-3.593.049-7.187-.026-10.779-.026-1.258.231-1.795,1.639-1.76,3.879.1,7.762-.029,11.641.063,4.971.119,8.78,3.543,9.109,8.038.406,5.532-2.343,9.1-7.7,10.142a27.01,27.01,0,0,1-5.8.268c-1.169-.026-1.793.26-1.583,1.536a.816.816,0,0,1,0,.215c-.164,1.613.764,4.064-.4,4.657-1.609.82-3.9.307-5.9.343-1.1.02-.98-.792-.98-1.512Q879.111,543.066,879.11,537.46Zm7.272-3.532c0,3.383,0,3.382,3.13,3.385.646,0,1.3.057,1.936,0A3.055,3.055,0,0,0,894,532.764c-.761-1.544-4.37-2.5-6.87-1.654C885.542,531.646,886.812,533.137,886.382,533.928Z" transform="translate(0 -0.712)" fill="#fff"/>
    <path id="Path_33" data-name="Path 33" d="M1075.416,523.675a13.608,13.608,0,0,1,8.941,3.117c.8.617,1,1.137.114,1.82a6.527,6.527,0,0,0-.918.907c-1.432,1.646-2.536,2.9-5.138,1.108-2.709-1.869-6.433-.582-8.19,1.95-1.842,2.655-1.606,7.144.5,9.435a6.959,6.959,0,0,0,8.891.676c1.8-1.318,2.527-.677,3.672.639,2.816,3.234,2.882,3.417-1.016,5.245a15.566,15.566,0,0,1-14.863-.534c-4.47-2.5-6.619-8.5-5.3-14.136a12.6,12.6,0,0,1,11.165-10.09C1073.983,523.749,1074.7,523.719,1075.416,523.675Z" transform="translate(-103.877)" fill="#fff"/>
    <path id="Path_34" data-name="Path 34" d="M1193.428,524.961c3.012,0,6.024.05,9.034-.025,1.231-.03,1.75.2,1.756,1.615.019,4.409.09,4.408-4.341,4.408-3.024,0-3.024,0-3.024,3.063,0,4.8-.057,9.61.035,14.412.028,1.447-.423,1.8-1.815,1.8-5.475.019-5.475.066-5.475-5.462,0-4.087-.041-8.175.026-12.261.02-1.216-.341-1.666-1.573-1.576-1.284.094-2.591-.087-3.868.048-1.589.167-1.894-.5-1.875-1.95.052-4.075-.009-4.075,4.02-4.075Z" transform="translate(-172.464 -0.721)" fill="#fff"/>
    <path id="Path_35" data-name="Path 35" d="M1246.951,532.018a3.656,3.656,0,0,1-3.921-3.665,3.788,3.788,0,0,1,3.924-3.94,3.736,3.736,0,0,1,3.806,3.831A3.624,3.624,0,0,1,1246.951,532.018Zm-2-1.95.489.4c1.678.707,1.678.707,2.735-.209,1.673-1.123,1.789-2.032.5-3.918-1.183-1.12-2.354-1.216-3.507.044C1243.824,527.538,1244.093,528.787,1244.947,530.068Z" transform="translate(-206.999 -0.424)" fill="#fff"/>
    <path id="Path_36" data-name="Path 36" d="M1248.6,532.812l-.366-.475q.034-1.609.069-3.214a4.04,4.04,0,0,1,2.929.215c.9,1.2-.453,2.352-.069,3.54C1249.818,532.015,1249.818,532.015,1248.6,532.812Z" transform="translate(-209.962 -3.007)" fill="#fff"/>
  </g>
</svg>
