<svg xmlns="http://www.w3.org/2000/svg" width="151.026" height="37.21" viewBox="0 0 151.026 37.21">
  <g id="logo_foscarini" transform="translate(-947.106 -988.067)">
    <path id="Path_20" data-name="Path 20" d="M1150.449,1024.614c-3.68,1.175-5.4-.153-6.282-3.669a80.58,80.58,0,0,0-4.991-13.877v17.644H1134.1V989.444c4.525-1.178,4.713-1.077,6.1,3.189a120.64,120.64,0,0,0,5.259,14.106V989.082h4.99Z" transform="translate(-62.361 -0.244)"/>
    <path id="Path_21" data-name="Path 21" d="M989.271,1006.579c0,3.22.1,6.443-.021,9.658-.206,5.6-3.255,8.9-8.177,9.044-4.948.142-8.394-2.926-8.65-8.518-.309-6.756-.287-13.548.01-20.307.238-5.421,3.561-8.4,8.441-8.357,4.976.042,8.151,3.3,8.385,8.821.135,3.214.025,6.439.025,9.658Zm-5.446.12h-.036c0-3.211.056-6.422-.021-9.631-.046-1.9-.622-3.641-2.96-3.635-2.3.006-2.94,1.6-2.945,3.6-.015,6.422-.045,12.845-.022,19.267.007,1.938.6,3.615,2.935,3.637,2.352.023,2.953-1.732,3.018-3.605C983.905,1013.123,983.825,1009.909,983.825,1006.7Z" transform="translate(-8.369 -0.011)"/>
    <path id="Path_22" data-name="Path 22" d="M1088.874,988.988c2.786,0,5.215-.046,7.641.009,4.762.109,7.483,2.317,8.123,7.059.565,4.186.708,8.375-2.4,11.971-.59.682-.483,2.27-.229,3.326,1.06,4.4,2.3,8.752,3.472,13.123-4.8,1.2-5.085,1.053-6.278-3.341-.811-2.987-1.49-6.013-2.412-8.964-.234-.753-1.168-1.288-1.78-1.924-.429.749-1.2,1.486-1.228,2.247-.123,4.067-.058,8.139-.058,12.346h-4.855Zm4.849,15.685,1.049,1.062c1.5-.91,4.09-1.646,4.268-2.767a21.417,21.417,0,0,0-.756-8.123c-.133-.555-2.364-.881-3.57-.755-.421.044-.9,1.758-.946,2.729C1093.637,999.431,1093.723,1002.054,1093.723,1004.673Z" transform="translate(-47.278 -0.301)"/>
    <path id="Path_23" data-name="Path 23" d="M1075.534,1024.756H1070.5a29.134,29.134,0,0,1-.75-4.56c-.027-2.758-1.284-3.545-3.924-3.426-2,.091-2.743.76-2.855,2.687a50.9,50.9,0,0,1-.831,5.184h-5.065c.954-6.135,1.88-12.212,2.85-18.282.785-4.914,1.8-9.8,2.359-14.735.275-2.439,1.356-2.9,3.435-2.755,2.01.143,4.112-.575,4.583,2.7C1071.876,1002.5,1073.723,1013.4,1075.534,1024.756Zm-8.892-26.33-.805.115c-.49,4.3-.98,8.595-1.5,13.166l3.9-.243C1067.686,1006.942,1067.164,1002.684,1066.642,998.426Z" transform="translate(-36.673 -0.259)"/>
    <path id="Path_24" data-name="Path 24" d="M1046.9,1000.425h-5.491c-.194-1.447-.084-2.977-.653-4.188-.524-1.116-1.777-1.89-2.709-2.815-.927,1.037-2.617,2.046-2.657,3.116-.251,6.654-.271,13.329-.007,19.983.047,1.176,1.785,2.285,2.743,3.426.982-1.116,2.324-2.088,2.843-3.389.487-1.22.1-2.787.1-4.392h5.247c.495,3.894.624,7.756-2.343,10.835-2.264,2.349-5.22,2.711-8.345,1.851-3.409-.937-5.477-3.293-5.589-6.644-.254-7.653-.249-15.324-.036-22.979.107-3.8,3.043-6.474,6.824-7.05,3.946-.6,7.462,1.222,8.764,4.977C1046.333,995.3,1046.426,997.659,1046.9,1000.425Z" transform="translate(-27.593)"/>
    <path id="Path_25" data-name="Path 25" d="M1017.393,996.686l-4.47.691c-.365-.938-.447-1.882-.959-2.3-.864-.707-2.112-1.626-2.99-1.444s-2.251,1.688-2.147,2.439a12.9,12.9,0,0,0,2.007,5.66c1.669,2.31,4.332,3.943,5.812,6.335a19.355,19.355,0,0,1,2.925,8.179c.438,5.125-2.532,8.325-7.324,8.958-4.151.549-7.566-2.016-8.9-6.732-.237-.837-.311-1.72-.526-2.956l4.838-.949c.511,1.436.669,2.761,1.382,3.633.671.818,2.09,1.768,2.883,1.555,1.019-.274,2.585-1.832,2.437-2.519a18.987,18.987,0,0,0-2.623-6.494c-1.268-1.894-3.261-3.293-4.878-4.965-3.109-3.216-3.862-7.148-3.169-11.4.645-3.964,4.267-6.558,8.512-6.274S1017.244,991.636,1017.393,996.686Z" transform="translate(-17.914 -0.005)"/>
    <path id="Path_26" data-name="Path 26" d="M952.407,1024.944h-5.3V989.378h14.931v4.977h-9.453v9.311h6.859v5.295l-7.036.387Z" transform="translate(0 -0.437)"/>
    <path id="Path_27" data-name="Path 27" d="M1123.653,1024.97h-5.09V989.386h5.09Z" transform="translate(-57.179 -0.44)"/>
    <path id="Path_28" data-name="Path 28" d="M1171.229,1024.906h-4.936V989.231h4.936Z" transform="translate(-73.097 -0.388)"/>
  </g>
</svg>
